<svg width="300" height="300" viewBox="0 0 300 300" fill="none" xmlns="http://www.w3.org/2000/svg">
<rect width="300" height="300" fill="#F5F5F5"/>
<rect width="300" height="300" fill="white"/>
<path d="M62.3792 39.3386L115.115 82.8578L60.7642 107.693L62.3792 39.3386Z" fill="#269993"/>
<path d="M234.459 39.3386L181.724 82.8578L236.074 107.693L234.459 39.3386Z" fill="#269993"/>
<path d="M249.5 150C249.5 201.594 203.432 243.5 146.5 243.5C89.5683 243.5 43.5 201.594 43.5 150C43.5 98.4056 89.5683 56.5 146.5 56.5C203.432 56.5 249.5 98.4056 249.5 150Z" fill="#41BEB7" stroke="#C4F5F3"/>
<path d="M200.5 167C200.5 174.544 196.515 181.408 190.005 186.402C183.495 191.397 174.479 194.5 164.5 194.5C154.521 194.5 145.505 191.397 138.995 186.402C132.485 181.408 128.5 174.544 128.5 167C128.5 159.456 132.485 152.592 138.995 147.598C145.505 142.603 154.521 139.5 164.5 139.5C174.479 139.5 183.495 142.603 190.005 147.598C196.515 152.592 200.5 159.456 200.5 167Z" fill="#01958C" stroke="#3CB2AB"/>
<path d="M184.5 156.5C184.5 160.825 180.127 164.5 174.5 164.5C168.873 164.5 164.5 160.825 164.5 156.5C164.5 152.175 168.873 148.5 174.5 148.5C180.127 148.5 184.5 152.175 184.5 156.5Z" fill="#102423" stroke="#00665F"/>
<path d="M127.5 108C127.5 119.864 117.661 129.5 105.5 129.5C93.3391 129.5 83.5 119.864 83.5 108C83.5 96.1364 93.3391 86.5 105.5 86.5C117.661 86.5 127.5 96.1364 127.5 108Z" fill="black" stroke="white"/>
<circle cx="116.5" cy="115.5" r="4.5" fill="white"/>
<path d="M207.5 108C207.5 119.864 197.661 129.5 185.5 129.5C173.339 129.5 163.5 119.864 163.5 108C163.5 96.1364 173.339 86.5 185.5 86.5C197.661 86.5 207.5 96.1364 207.5 108Z" fill="black" stroke="white"/>
<circle cx="196.5" cy="115.5" r="4.5" fill="white"/>
<path d="M174.645 170.662C174.363 173.593 172.979 176.169 170.614 178.163C168.25 180.156 164.978 181.506 161.087 182.093C157.195 182.68 152.804 182.486 148.301 181.528C143.797 180.571 139.319 178.879 135.261 176.603L137.008 174.609C140.473 176.553 144.297 177.998 148.143 178.815C151.988 179.633 155.737 179.798 159.06 179.297C162.382 178.796 165.176 177.643 167.195 175.941C169.214 174.239 170.396 172.04 170.637 169.537L174.645 170.662Z" fill="#C0C0C0"/>
<rect width="138" height="54" transform="translate(81 244)" fill="white"/>
<line x1="85.5" y1="246" x2="85.5" y2="295" stroke="black"/>
<line x1="88.5" y1="246" x2="88.5" y2="295" stroke="black"/>
<line x1="88.4454" y1="245.773" x2="113.445" y2="294.773" stroke="black"/>
<line x1="85.4454" y1="245.773" x2="110.445" y2="294.773" stroke="black"/>
<line x1="110.5" y1="295" x2="110.5" y2="246" stroke="black"/>
<line x1="113.5" y1="295" x2="113.5" y2="246" stroke="black"/>
<line x1="85" y1="246.5" x2="89" y2="246.5" stroke="black"/>
<line x1="110" y1="246.5" x2="114" y2="246.5" stroke="black"/>
<line x1="85" y1="294.5" x2="89" y2="294.5" stroke="black"/>
<line x1="110" y1="294.5" x2="114" y2="294.5" stroke="black"/>
<line x1="117.5" y1="246" x2="117.5" y2="295" stroke="black"/>
<line x1="120.5" y1="246" x2="120.5" y2="295" stroke="black"/>
<line x1="117" y1="246.5" x2="137" y2="246.5" stroke="black"/>
<line x1="117" y1="249.5" x2="137" y2="249.5" stroke="black"/>
<line x1="117" y1="268.5" x2="132" y2="268.5" stroke="black"/>
<line x1="117" y1="271.5" x2="132" y2="271.5" stroke="black"/>
<line x1="117" y1="291.5" x2="137" y2="291.5" stroke="black"/>
<line x1="117" y1="294.5" x2="137" y2="294.5" stroke="black"/>
<line x1="136.5" y1="246" x2="136.5" y2="250" stroke="black"/>
<line x1="131.5" y1="268" x2="131.5" y2="272" stroke="black"/>
<line x1="136.5" y1="291" x2="136.5" y2="295" stroke="black"/>
<line x1="141.5" y1="246" x2="141.5" y2="295" stroke="black"/>
<line x1="144.5" y1="246" x2="144.5" y2="295" stroke="black"/>
<line x1="144.646" y1="271.646" x2="163.646" y2="252.646" stroke="black"/>
<line x1="144.646" y1="275.646" x2="165.646" y2="254.646" stroke="black"/>
<line x1="148.443" y1="271.769" x2="160.443" y2="294.769" stroke="black"/>
<line x1="150.44" y1="269.762" x2="163.44" y2="293.762" stroke="black"/>
<line x1="141" y1="246.5" x2="145" y2="246.5" stroke="black"/>
<line x1="141" y1="294.5" x2="145" y2="294.5" stroke="black"/>
<line x1="159.842" y1="294.526" x2="162.842" y2="293.526" stroke="black"/>
<path d="M214.5 272.5C214.5 285.765 203.969 296.5 191 296.5C178.031 296.5 167.5 285.765 167.5 272.5C167.5 259.235 178.031 248.5 191 248.5C203.969 248.5 214.5 259.235 214.5 272.5Z" fill="white" stroke="black"/>
</svg>
